<?xml version="1.0"?>
<svg xmlns="http://www.w3.org/2000/svg" viewBox="0 0 50 50">
    <path style="text-indent:0;text-align:start;line-height:normal;text-transform:none;block-progression:tb;-inkscape-font-specification:Sans" d="M 31.75 3 A 1.0001 1.0001 0 0 0 31.6875 4.96875 C 34.288629 5.4456609 37.446364 7.3828502 40 9.90625 C 42.553636 12.42965 44.523989 15.547863 45.03125 18.1875 A 1.0001 1.0001 0 1 0 46.96875 17.8125 C 46.342011 14.551137 44.173364 11.2031 41.40625 8.46875 C 38.639136 5.7343998 35.286371 3.6223391 32.0625 3.03125 A 1.0001 1.0001 0 0 0 31.75 3 z M 30.75 8 A 1.0001 1.0001 0 0 0 30.53125 9.9375 C 34.658419 11.536229 38.554167 15.322435 39.9375 19.3125 A 1.0001 1.0001 0 1 0 41.8125 18.6875 C 40.185833 13.995565 35.956831 9.8857708 31.25 8.0625 A 1.0001 1.0001 0 0 0 30.75 8 z M 29.71875 13 A 1.0001 1.0001 0 0 0 29.46875 14.90625 C 31.425723 15.810482 33.934287 18.139103 34.96875 20.40625 A 1.0001 1.0001 0 1 0 36.78125 19.59375 C 35.477713 16.736897 32.809527 14.247518 30.3125 13.09375 A 1.0001 1.0001 0 0 0 29.71875 13 z M 19.71875 15 C 19.45475 15.043 19.2175 15.18825 19.0625 15.40625 L 17.0625 18.21875 C 16.8465 18.52175 16.831 18.918 17 19.25 C 17.009 19.269 17.926 21.15575 17.875 22.96875 C 17.844 24.08675 17.2695 25.32525 16.3125 26.28125 L 8.1875 34.28125 C 8.1525 34.31625 8.12375 34.36725 8.09375 34.40625 C 7.3089778 35.447786 7.0148723 39.297054 6.90625 41.6875 L 3.1875 45.40625 L 4.59375 46.8125 L 8.40625 43 C 14.316092 42.851088 15.353286 42.056318 15.65625 41.65625 L 23.71875 33.71875 C 24.72175 32.71675 25.9505 32.051 26.9375 32 C 28.6775 31.911 30.342 32.856 30.375 32.875 C 30.705 33.067 31.1185 33.05675 31.4375 32.84375 L 34.4375 30.84375 C 34.6585 30.69675 34.823 30.4485 34.875 30.1875 C 34.909 30.0115 35.63825 25.82575 29.90625 20.09375 C 24.18825 14.37675 19.90175 14.972 19.71875 15 z M 20.875 28 C 21.13075 28 21.39825 28.08575 21.59375 28.28125 C 21.98475 28.67225 21.98475 29.32775 21.59375 29.71875 L 19.59375 31.71875 C 19.39875 31.91375 19.131 32 18.875 32 C 18.619 32 18.3825 31.91375 18.1875 31.71875 C 17.7965 31.32775 17.7965 30.67225 18.1875 30.28125 L 20.1875 28.28125 C 20.383 28.08575 20.61925 28 20.875 28 z"/>
</svg>
